<mxfile host="app.diagrams.net" modified="2021-09-06T14:20:58.451Z" agent="5.0 (Windows NT 10.0; Win64; x64) AppleWebKit/537.36 (KHTML, like Gecko) Chrome/92.0.4515.159 Safari/537.36" etag="eIcN257JQF0BkvX6ZP8l" version="15.0.6" type="github">
  <diagram id="jB1Pks_u99kZMKdg3vus" name="Page-1">
    <mxGraphModel dx="1038" dy="546" grid="1" gridSize="10" guides="1" tooltips="1" connect="1" arrows="1" fold="1" page="1" pageScale="1" pageWidth="827" pageHeight="1169" math="0" shadow="0">
      <root>
        <mxCell id="0" />
        <mxCell id="1" parent="0" />
        <mxCell id="zN4wuhpx01TfuoH7jJ1A-1" value="&lt;p style=&quot;line-height: 120%&quot;&gt;ControlPanels&lt;/p&gt;" style="whiteSpace=wrap;html=1;aspect=fixed;verticalAlign=top;" vertex="1" parent="1">
          <mxGeometry x="5" y="330" width="405" height="405" as="geometry" />
        </mxCell>
        <mxCell id="zN4wuhpx01TfuoH7jJ1A-2" value="ControlPanel.Common" style="shape=folder;fontStyle=1;spacingTop=10;tabWidth=40;tabHeight=14;tabPosition=left;html=1;" vertex="1" parent="1">
          <mxGeometry x="60" y="20" width="300" height="220" as="geometry" />
        </mxCell>
        <mxCell id="zN4wuhpx01TfuoH7jJ1A-3" value="«interface»&lt;br&gt;&lt;b&gt;IControlPanel&lt;/b&gt;" style="html=1;" vertex="1" parent="1">
          <mxGeometry x="235" y="170" width="110" height="50" as="geometry" />
        </mxCell>
        <mxCell id="zN4wuhpx01TfuoH7jJ1A-4" value="ControlPanel2" style="shape=folder;fontStyle=1;spacingTop=10;tabWidth=40;tabHeight=14;tabPosition=left;html=1;" vertex="1" parent="1">
          <mxGeometry x="490" y="20" width="320" height="230" as="geometry" />
        </mxCell>
        <mxCell id="zN4wuhpx01TfuoH7jJ1A-5" value="Sinumerik840DControlPanel" style="shape=folder;fontStyle=1;spacingTop=10;tabWidth=40;tabHeight=14;tabPosition=left;html=1;" vertex="1" parent="1">
          <mxGeometry x="30" y="370" width="320" height="220" as="geometry" />
        </mxCell>
        <mxCell id="zN4wuhpx01TfuoH7jJ1A-6" style="edgeStyle=orthogonalEdgeStyle;rounded=0;orthogonalLoop=1;jettySize=auto;html=1;entryX=1;entryY=0.5;entryDx=0;entryDy=0;exitX=0;exitY=0.5;exitDx=0;exitDy=0;" edge="1" parent="1" source="zN4wuhpx01TfuoH7jJ1A-17" target="zN4wuhpx01TfuoH7jJ1A-3">
          <mxGeometry relative="1" as="geometry">
            <mxPoint x="500" y="195" as="sourcePoint" />
          </mxGeometry>
        </mxCell>
        <mxCell id="zN4wuhpx01TfuoH7jJ1A-7" value="Sinumerik840DControlPanel" style="shape=folder;fontStyle=1;spacingTop=10;tabWidth=40;tabHeight=14;tabPosition=left;html=1;" vertex="1" parent="1">
          <mxGeometry x="40" y="380" width="320" height="220" as="geometry" />
        </mxCell>
        <mxCell id="zN4wuhpx01TfuoH7jJ1A-8" value="Sinumerik840DControlPanel" style="shape=folder;fontStyle=1;spacingTop=10;tabWidth=40;tabHeight=14;tabPosition=left;html=1;" vertex="1" parent="1">
          <mxGeometry x="50" y="390" width="320" height="220" as="geometry" />
        </mxCell>
        <mxCell id="zN4wuhpx01TfuoH7jJ1A-9" value="Sinumerik840DControlPanel" style="shape=folder;fontStyle=1;spacingTop=10;tabWidth=40;tabHeight=14;tabPosition=left;html=1;" vertex="1" parent="1">
          <mxGeometry x="60" y="400" width="320" height="220" as="geometry" />
        </mxCell>
        <mxCell id="zN4wuhpx01TfuoH7jJ1A-10" value="Sinumerik840DControlPanel" style="shape=folder;fontStyle=1;spacingTop=10;tabWidth=40;tabHeight=14;tabPosition=left;html=1;" vertex="1" parent="1">
          <mxGeometry x="70" y="410" width="320" height="220" as="geometry" />
        </mxCell>
        <mxCell id="zN4wuhpx01TfuoH7jJ1A-11" style="edgeStyle=orthogonalEdgeStyle;rounded=0;orthogonalLoop=1;jettySize=auto;html=1;entryX=0.25;entryY=0;entryDx=0;entryDy=0;" edge="1" parent="1" source="zN4wuhpx01TfuoH7jJ1A-13" target="zN4wuhpx01TfuoH7jJ1A-17">
          <mxGeometry relative="1" as="geometry">
            <mxPoint x="595" y="160" as="targetPoint" />
          </mxGeometry>
        </mxCell>
        <mxCell id="zN4wuhpx01TfuoH7jJ1A-12" style="edgeStyle=orthogonalEdgeStyle;rounded=0;orthogonalLoop=1;jettySize=auto;html=1;entryX=1;entryY=0.5;entryDx=0;entryDy=0;" edge="1" parent="1" source="zN4wuhpx01TfuoH7jJ1A-13" target="zN4wuhpx01TfuoH7jJ1A-19">
          <mxGeometry relative="1" as="geometry" />
        </mxCell>
        <mxCell id="zN4wuhpx01TfuoH7jJ1A-13" value="&lt;p style=&quot;margin: 0px ; margin-top: 4px ; text-align: center&quot;&gt;&lt;b&gt;Progam&lt;/b&gt;&lt;/p&gt;&lt;hr size=&quot;1&quot;&gt;&lt;div style=&quot;height: 2px&quot;&gt;&lt;span style=&quot;font-family: &amp;#34;arial&amp;#34; ; font-size: 13.5px&quot;&gt;- main(args: String[])&lt;/span&gt;&lt;/div&gt;" style="verticalAlign=top;align=left;overflow=fill;fontSize=12;fontFamily=Helvetica;html=1;" vertex="1" parent="1">
          <mxGeometry x="505" y="41" width="140" height="60" as="geometry" />
        </mxCell>
        <mxCell id="zN4wuhpx01TfuoH7jJ1A-14" value="&lt;p style=&quot;margin: 0px ; margin-top: 4px ; text-align: center&quot;&gt;&lt;b&gt;Sinumerik840DContorlPanel&lt;/b&gt;&lt;/p&gt;&lt;hr size=&quot;1&quot;&gt;&lt;div style=&quot;height: 2px&quot;&gt;&lt;font face=&quot;arial&quot;&gt;&lt;span style=&quot;font-size: 13.5px&quot;&gt;+ KeyUp(kCode: String)&lt;/span&gt;&lt;/font&gt;&lt;/div&gt;&lt;div style=&quot;height: 2px&quot;&gt;&lt;font face=&quot;arial&quot;&gt;&lt;span style=&quot;font-size: 13.5px&quot;&gt;&lt;br&gt;&lt;/span&gt;&lt;/font&gt;&lt;/div&gt;&lt;div style=&quot;height: 2px&quot;&gt;&lt;font face=&quot;arial&quot;&gt;&lt;span style=&quot;font-size: 13.5px&quot;&gt;&lt;br&gt;&lt;/span&gt;&lt;/font&gt;&lt;/div&gt;&lt;div style=&quot;height: 2px&quot;&gt;&lt;font face=&quot;arial&quot;&gt;&lt;span style=&quot;font-size: 13.5px&quot;&gt;&lt;br&gt;&lt;/span&gt;&lt;/font&gt;&lt;/div&gt;&lt;div style=&quot;height: 2px&quot;&gt;&lt;font face=&quot;arial&quot;&gt;&lt;span style=&quot;font-size: 13.5px&quot;&gt;&lt;br&gt;&lt;/span&gt;&lt;/font&gt;&lt;/div&gt;&lt;div style=&quot;height: 2px&quot;&gt;&lt;font face=&quot;arial&quot;&gt;&lt;span style=&quot;font-size: 13.5px&quot;&gt;&lt;br&gt;&lt;/span&gt;&lt;/font&gt;&lt;/div&gt;&lt;div style=&quot;height: 2px&quot;&gt;&lt;font face=&quot;arial&quot;&gt;&lt;span style=&quot;font-size: 13.5px&quot;&gt;&lt;br&gt;&lt;/span&gt;&lt;/font&gt;&lt;/div&gt;&lt;div style=&quot;height: 2px&quot;&gt;&lt;font face=&quot;arial&quot;&gt;&lt;span style=&quot;font-size: 13.5px&quot;&gt;&lt;br&gt;&lt;/span&gt;&lt;/font&gt;&lt;/div&gt;&lt;div style=&quot;height: 2px&quot;&gt;&lt;font face=&quot;arial&quot;&gt;&lt;span style=&quot;font-size: 13.5px&quot;&gt;&lt;br&gt;&lt;/span&gt;&lt;/font&gt;&lt;/div&gt;&lt;div style=&quot;height: 2px&quot;&gt;&lt;span style=&quot;font-family: &amp;#34;arial&amp;#34; ; font-size: 13.5px&quot;&gt;+ KeyDown(kCode: String)&lt;/span&gt;&lt;font face=&quot;arial&quot;&gt;&lt;span style=&quot;font-size: 13.5px&quot;&gt;&lt;br&gt;&lt;/span&gt;&lt;/font&gt;&lt;/div&gt;&lt;div style=&quot;height: 2px&quot;&gt;&lt;font face=&quot;arial&quot;&gt;&lt;span style=&quot;font-size: 13.5px&quot;&gt;&lt;br&gt;&lt;/span&gt;&lt;/font&gt;&lt;/div&gt;" style="verticalAlign=top;align=left;overflow=fill;fontSize=12;fontFamily=Helvetica;html=1;" vertex="1" parent="1">
          <mxGeometry x="200" y="430" width="180" height="80" as="geometry" />
        </mxCell>
        <mxCell id="zN4wuhpx01TfuoH7jJ1A-15" value="" style="endArrow=block;dashed=1;endFill=0;endSize=12;html=1;entryX=0.5;entryY=1;entryDx=0;entryDy=0;exitX=0.5;exitY=0;exitDx=0;exitDy=0;" edge="1" parent="1" source="zN4wuhpx01TfuoH7jJ1A-14" target="zN4wuhpx01TfuoH7jJ1A-3">
          <mxGeometry width="160" relative="1" as="geometry">
            <mxPoint x="170" y="290" as="sourcePoint" />
            <mxPoint x="330" y="290" as="targetPoint" />
          </mxGeometry>
        </mxCell>
        <mxCell id="zN4wuhpx01TfuoH7jJ1A-16" style="edgeStyle=orthogonalEdgeStyle;rounded=0;orthogonalLoop=1;jettySize=auto;html=1;exitX=0;exitY=0.5;exitDx=0;exitDy=0;entryX=1;entryY=0.75;entryDx=0;entryDy=0;" edge="1" parent="1" source="zN4wuhpx01TfuoH7jJ1A-17" target="zN4wuhpx01TfuoH7jJ1A-19">
          <mxGeometry relative="1" as="geometry" />
        </mxCell>
        <mxCell id="zN4wuhpx01TfuoH7jJ1A-17" value="&lt;p style=&quot;margin: 0px ; margin-top: 4px ; text-align: center&quot;&gt;&lt;b&gt;MainForm&lt;/b&gt;&lt;/p&gt;&lt;hr size=&quot;1&quot;&gt;&lt;div style=&quot;height: 2px&quot;&gt;&lt;span style=&quot;font-family: &amp;#34;arial&amp;#34; ; font-size: 13.5px&quot;&gt;- ChangeController(ControlerType: IContorlPanel)&lt;/span&gt;&lt;/div&gt;" style="verticalAlign=top;align=left;overflow=fill;fontSize=12;fontFamily=Helvetica;html=1;" vertex="1" parent="1">
          <mxGeometry x="500" y="160" width="300" height="70" as="geometry" />
        </mxCell>
        <mxCell id="zN4wuhpx01TfuoH7jJ1A-18" value="WCPApi" style="shape=folder;fontStyle=1;spacingTop=10;tabWidth=40;tabHeight=14;tabPosition=left;html=1;verticalAlign=top;" vertex="1" parent="1">
          <mxGeometry x="500" y="330" width="300" height="350" as="geometry" />
        </mxCell>
        <mxCell id="zN4wuhpx01TfuoH7jJ1A-19" value="«interface»&lt;br&gt;&lt;b&gt;IWebControlPanel&lt;/b&gt;" style="html=1;" vertex="1" parent="1">
          <mxGeometry x="235" y="60" width="110" height="50" as="geometry" />
        </mxCell>
        <mxCell id="zN4wuhpx01TfuoH7jJ1A-20" value="&lt;p style=&quot;margin: 0px ; margin-top: 4px ; text-align: center&quot;&gt;&lt;b&gt;WebControlPanel&lt;/b&gt;&lt;/p&gt;&lt;hr size=&quot;1&quot;&gt;&lt;div style=&quot;height: 2px&quot;&gt;&lt;span style=&quot;font-family: &amp;#34;arial&amp;#34; ; font-size: 13.5px&quot;&gt;+ startWebServer()&lt;/span&gt;&lt;/div&gt;&lt;div style=&quot;height: 2px&quot;&gt;&lt;span style=&quot;font-family: &amp;#34;arial&amp;#34; ; font-size: 13.5px&quot;&gt;&lt;br&gt;&lt;/span&gt;&lt;/div&gt;&lt;div style=&quot;height: 2px&quot;&gt;&lt;span style=&quot;font-family: &amp;#34;arial&amp;#34; ; font-size: 13.5px&quot;&gt;&lt;br&gt;&lt;/span&gt;&lt;/div&gt;&lt;div style=&quot;height: 2px&quot;&gt;&lt;span style=&quot;font-family: &amp;#34;arial&amp;#34; ; font-size: 13.5px&quot;&gt;&lt;br&gt;&lt;/span&gt;&lt;/div&gt;&lt;div style=&quot;height: 2px&quot;&gt;&lt;span style=&quot;font-family: &amp;#34;arial&amp;#34; ; font-size: 13.5px&quot;&gt;&lt;br&gt;&lt;/span&gt;&lt;/div&gt;&lt;div style=&quot;height: 2px&quot;&gt;&lt;span style=&quot;font-family: &amp;#34;arial&amp;#34; ; font-size: 13.5px&quot;&gt;&lt;br&gt;&lt;/span&gt;&lt;/div&gt;&lt;div style=&quot;height: 2px&quot;&gt;&lt;span style=&quot;font-family: &amp;#34;arial&amp;#34; ; font-size: 13.5px&quot;&gt;&lt;br&gt;&lt;/span&gt;&lt;/div&gt;&lt;div style=&quot;height: 2px&quot;&gt;&lt;span style=&quot;font-family: &amp;#34;arial&amp;#34; ; font-size: 13.5px&quot;&gt;&lt;br&gt;&lt;/span&gt;&lt;/div&gt;&lt;div style=&quot;height: 2px&quot;&gt;&lt;span style=&quot;font-family: &amp;#34;arial&amp;#34; ; font-size: 13.5px&quot;&gt;&lt;br&gt;&lt;/span&gt;&lt;/div&gt;&lt;div style=&quot;height: 2px&quot;&gt;&lt;span style=&quot;font-family: &amp;#34;arial&amp;#34; ; font-size: 13.5px&quot;&gt;&lt;u&gt;+ getInstance(): WebControlPanel&lt;/u&gt;&lt;/span&gt;&lt;/div&gt;&lt;div style=&quot;height: 2px&quot;&gt;&lt;span style=&quot;font-family: &amp;#34;arial&amp;#34; ; font-size: 13.5px&quot;&gt;&lt;u&gt;&lt;br&gt;&lt;/u&gt;&lt;/span&gt;&lt;/div&gt;&lt;div style=&quot;height: 2px&quot;&gt;&lt;span style=&quot;font-family: &amp;#34;arial&amp;#34; ; font-size: 13.5px&quot;&gt;&lt;u&gt;&lt;br&gt;&lt;/u&gt;&lt;/span&gt;&lt;/div&gt;&lt;div style=&quot;height: 2px&quot;&gt;&lt;span style=&quot;font-family: &amp;#34;arial&amp;#34; ; font-size: 13.5px&quot;&gt;&lt;u&gt;&lt;br&gt;&lt;/u&gt;&lt;/span&gt;&lt;/div&gt;&lt;div style=&quot;height: 2px&quot;&gt;&lt;span style=&quot;font-family: &amp;#34;arial&amp;#34; ; font-size: 13.5px&quot;&gt;&lt;u&gt;&lt;br&gt;&lt;/u&gt;&lt;/span&gt;&lt;/div&gt;&lt;div style=&quot;height: 2px&quot;&gt;&lt;span style=&quot;font-family: &amp;#34;arial&amp;#34; ; font-size: 13.5px&quot;&gt;&lt;u&gt;&lt;br&gt;&lt;/u&gt;&lt;/span&gt;&lt;/div&gt;&lt;div style=&quot;height: 2px&quot;&gt;&lt;span style=&quot;font-family: &amp;#34;arial&amp;#34; ; font-size: 13.5px&quot;&gt;&lt;u&gt;&lt;br&gt;&lt;/u&gt;&lt;/span&gt;&lt;/div&gt;&lt;div style=&quot;height: 2px&quot;&gt;&lt;span style=&quot;font-family: &amp;#34;arial&amp;#34; ; font-size: 13.5px&quot;&gt;&lt;u&gt;&lt;br&gt;&lt;/u&gt;&lt;/span&gt;&lt;/div&gt;&lt;div style=&quot;height: 2px&quot;&gt;&lt;span style=&quot;font-family: &amp;#34;arial&amp;#34; ; font-size: 13.5px&quot;&gt;&lt;u&gt;&lt;br&gt;&lt;/u&gt;&lt;/span&gt;&lt;/div&gt;&lt;div style=&quot;height: 2px&quot;&gt;&lt;span style=&quot;font-family: &amp;#34;arial&amp;#34; ; font-size: 13.5px&quot;&gt;- createHostBuilder(): IHostBuilder&lt;/span&gt;&lt;/div&gt;" style="verticalAlign=top;align=left;overflow=fill;fontSize=12;fontFamily=Helvetica;html=1;" vertex="1" parent="1">
          <mxGeometry x="520" y="380" width="220" height="90" as="geometry" />
        </mxCell>
        <mxCell id="zN4wuhpx01TfuoH7jJ1A-22" value="" style="endArrow=block;dashed=1;endFill=0;endSize=12;html=1;entryX=0.5;entryY=1;entryDx=0;entryDy=0;exitX=0.5;exitY=0;exitDx=0;exitDy=0;" edge="1" parent="1" source="zN4wuhpx01TfuoH7jJ1A-20" target="zN4wuhpx01TfuoH7jJ1A-19">
          <mxGeometry width="160" relative="1" as="geometry">
            <mxPoint x="330" y="250" as="sourcePoint" />
            <mxPoint x="490" y="250" as="targetPoint" />
            <Array as="points">
              <mxPoint x="615" y="260" />
              <mxPoint x="400" y="260" />
              <mxPoint x="400" y="150" />
              <mxPoint x="290" y="150" />
            </Array>
          </mxGeometry>
        </mxCell>
        <mxCell id="zN4wuhpx01TfuoH7jJ1A-24" style="edgeStyle=orthogonalEdgeStyle;rounded=0;orthogonalLoop=1;jettySize=auto;html=1;entryX=0.5;entryY=1;entryDx=0;entryDy=0;" edge="1" parent="1" source="zN4wuhpx01TfuoH7jJ1A-23" target="zN4wuhpx01TfuoH7jJ1A-20">
          <mxGeometry relative="1" as="geometry" />
        </mxCell>
        <mxCell id="zN4wuhpx01TfuoH7jJ1A-23" value="&lt;p style=&quot;margin: 0px ; margin-top: 4px ; text-align: center&quot;&gt;&lt;b&gt;InputController&lt;/b&gt;&lt;/p&gt;&lt;hr size=&quot;1&quot;&gt;&lt;div style=&quot;height: 2px&quot;&gt;&lt;font face=&quot;arial&quot;&gt;&lt;span style=&quot;font-size: 13.5px&quot;&gt;+ KeyUp(kCode: String)&lt;/span&gt;&lt;/font&gt;&lt;/div&gt;&lt;div style=&quot;height: 2px&quot;&gt;&lt;font face=&quot;arial&quot;&gt;&lt;span style=&quot;font-size: 13.5px&quot;&gt;&lt;br&gt;&lt;/span&gt;&lt;/font&gt;&lt;/div&gt;&lt;div style=&quot;height: 2px&quot;&gt;&lt;font face=&quot;arial&quot;&gt;&lt;span style=&quot;font-size: 13.5px&quot;&gt;&lt;br&gt;&lt;/span&gt;&lt;/font&gt;&lt;/div&gt;&lt;div style=&quot;height: 2px&quot;&gt;&lt;font face=&quot;arial&quot;&gt;&lt;span style=&quot;font-size: 13.5px&quot;&gt;&lt;br&gt;&lt;/span&gt;&lt;/font&gt;&lt;/div&gt;&lt;div style=&quot;height: 2px&quot;&gt;&lt;font face=&quot;arial&quot;&gt;&lt;span style=&quot;font-size: 13.5px&quot;&gt;&lt;br&gt;&lt;/span&gt;&lt;/font&gt;&lt;/div&gt;&lt;div style=&quot;height: 2px&quot;&gt;&lt;font face=&quot;arial&quot;&gt;&lt;span style=&quot;font-size: 13.5px&quot;&gt;&lt;br&gt;&lt;/span&gt;&lt;/font&gt;&lt;/div&gt;&lt;div style=&quot;height: 2px&quot;&gt;&lt;font face=&quot;arial&quot;&gt;&lt;span style=&quot;font-size: 13.5px&quot;&gt;&lt;br&gt;&lt;/span&gt;&lt;/font&gt;&lt;/div&gt;&lt;div style=&quot;height: 2px&quot;&gt;&lt;font face=&quot;arial&quot;&gt;&lt;span style=&quot;font-size: 13.5px&quot;&gt;&lt;br&gt;&lt;/span&gt;&lt;/font&gt;&lt;/div&gt;&lt;div style=&quot;height: 2px&quot;&gt;&lt;font face=&quot;arial&quot;&gt;&lt;span style=&quot;font-size: 13.5px&quot;&gt;&lt;br&gt;&lt;/span&gt;&lt;/font&gt;&lt;/div&gt;&lt;div style=&quot;height: 2px&quot;&gt;&lt;span style=&quot;font-family: &amp;#34;arial&amp;#34; ; font-size: 13.5px&quot;&gt;+ KeyDown(kCode: String)&lt;/span&gt;&lt;font face=&quot;arial&quot;&gt;&lt;span style=&quot;font-size: 13.5px&quot;&gt;&lt;br&gt;&lt;/span&gt;&lt;/font&gt;&lt;/div&gt;&lt;div style=&quot;height: 2px&quot;&gt;&lt;font face=&quot;arial&quot;&gt;&lt;span style=&quot;font-size: 13.5px&quot;&gt;&lt;br&gt;&lt;/span&gt;&lt;/font&gt;&lt;/div&gt;" style="verticalAlign=top;align=left;overflow=fill;fontSize=12;fontFamily=Helvetica;html=1;" vertex="1" parent="1">
          <mxGeometry x="540" y="550" width="180" height="80" as="geometry" />
        </mxCell>
      </root>
    </mxGraphModel>
  </diagram>
</mxfile>
